# xmcd CD database file
#
# Track frame offsets:
#	150
#	13240
#	25327
#	38433
#	50922
#	64432
#	77255
#	90527
#	103877
#	117599
#	132220
#	146392
#	161163
#	175865
#	187920
#	199879
#	213693
#	228626
#	242610
#	257145
#	270218
#	284739
#
# Disc length: 3985 seconds
#
# Revision: 0
# Processed by: cddbd v1.5.2PL0 Copyright (c) Steve Scherf et al.
# Submitted via: CDex 1.51
#
DISCID=450f8f16
DTITLE=Ben Webster - Complete 1943-1951 Small Group Recordings Disc 3
DYEAR=1900
DGENRE=Jazz
TTITLE0=Blues in my heart
TTITLE1=Emaline
TTITLE2=Am I Blue
TTITLE3=Rose of the Rio Grande
TTITLE4=Ben rides out
TTITLE5=Petes housewarming
TTITLE6=Jeep is Jumpin
TTITLE7=I got it bad and that aint good
TTITLE8=Dark Corners
TTITLE9=Blues Mr. Brim
TTITLE10=Frog and Mule
TTITLE11=Spang
TTITLE12=Doctor Keets
TTITLE13=Park and Tilford Blues
TTITLE14=Sweet Georgia Brown
TTITLE15=Out of my Way
TTITLE16=What'll it be
TTITLE17=Cadillac Slim
TTITLE18=Randie's Island
TTITLE19=Old FOlks
TTITLE20=King's Riff
TTITLE21=You're My Thrill
EXTD=
EXTT0=
EXTT1=
EXTT2=
EXTT3=
EXTT4=
EXTT5=
EXTT6=
EXTT7=
EXTT8=
EXTT9=
EXTT10=
EXTT11=
EXTT12=
EXTT13=
EXTT14=
EXTT15=
EXTT16=
EXTT17=
EXTT18=
EXTT19=
EXTT20=
EXTT21=
PLAYORDER=
